IKResults
version=1
nRows=10
nColumns=40
inDegrees=yes

Units are S.I. units (second, meters, Newtons, ...)
Angles are in degrees.

endheader
time	pelvis_tilt	pelvis_list	pelvis_rotation	pelvis_tx	pelvis_ty	pelvis_tz	hip_flexion_r	hip_adduction_r	hip_rotation_r	knee_angle_r	knee_angle_r_beta	ankle_angle_r	subtalar_angle_r	mtp_angle_r	hip_flexion_l	hip_adduction_l	hip_rotation_l	knee_angle_l	knee_angle_l_beta	ankle_angle_l	subtalar_angle_l	mtp_angle_l	lumbar_extension	lumbar_bending	lumbar_rotation	arm_flex_r	arm_add_r	arm_rot_r	elbow_flex_r	pro_sup_r	wrist_flex_r	wrist_dev_r	arm_flex_l	arm_add_l	arm_rot_l	elbow_flex_l	pro_sup_l	wrist_flex_l	wrist_dev_l
      1.16000000	     18.40814903	     -1.29785934	     -0.55871436	     -0.04889255	      0.95774541	      1.43210713	     -1.61043115	     -2.03435075	     -9.49759988	    -50.06317692	     -0.87376727	      5.45488395	    -17.18651002	     17.62760404	    -18.74531871	     -1.45490344	     12.21409628	    -13.09769781	     -0.22859795	      9.76711739	      0.07969147	     -6.28532435	    -24.47896966	     -0.11960195	     -0.96138440	     -8.94676802	    -10.12985484	     -1.28449720	     19.10667543	     89.95437384	      0.00000000	      0.00000000	      6.33087151	      9.53474247	      8.14707375	     27.84772820	     89.95437384	      0.00000000	      0.00000000
      1.17000000	     17.93592692	     -1.22367383	     -0.57189624	     -0.03964190	      0.95677898	      1.43112162	     -0.16771695	     -2.19296476	     -9.70755903	    -48.52593617	     -0.84693736	      5.90825711	    -17.02678747	     17.38896138	    -18.88413089	     -1.61546910	     12.32187810	    -13.05061443	     -0.22777619	     10.03085836	      0.03421104	     -6.20159492	    -24.03498409	     -0.07238412	     -1.13675434	     -9.32293669	    -10.16611928	     -1.28959312	     18.91402197	     89.95437384	      0.00000000	      0.00000000	      6.96854397	      9.63883775	      8.10335209	     28.58341790	     89.95437384	      0.00000000	      0.00000000
      1.18000000	     17.88405767	     -1.61667188	     -0.21864884	     -0.03021097	      0.95643237	      1.43022452	      0.41024228	     -1.53539099	     -9.82454775	    -46.29095951	     -0.80792966	      6.51890411	    -16.95877681	     17.46522270	    -19.64322988	     -1.19049837	     11.84938148	    -12.73504545	     -0.22226847	     10.52454534	      0.02551944	     -6.13724950	    -24.04369486	      0.53281545	     -1.58228056	     -9.42659265	    -10.13033937	     -1.62513442	     18.43712124	     89.95437384	      0.00000000	      0.00000000	      7.32405279	      9.84088077	      8.00093602	     29.79998091	     89.95437384	      0.00000000	      0.00000000
      1.19000000	     17.79367921	     -1.81034177	      0.26158828	     -0.02111026	      0.95588548	      1.42928272	      1.04265944	     -1.25289361	    -10.43611846	    -44.08012467	     -0.76934331	      6.70844300	    -16.83103159	     17.54823234	    -20.17925637	     -0.88256142	     11.30010667	    -12.69453107	     -0.22156136	     10.88034260	      0.10474840	     -6.02410184	    -24.04575615	      0.94329485	     -2.08553434	     -9.65002867	    -10.03815713	     -1.96558707	     18.20389525	     89.95437384	      0.00000000	      0.00000000	      7.83305086	     10.07430323	      7.84945425	     30.93804425	     89.95437384	      0.00000000	      0.00000000
      1.20000000	     17.58325454	     -1.87738205	      0.51024172	     -0.01174876	      0.95504979	      1.42849358	      1.81296130	     -1.13095562	    -10.87131374	    -41.88802156	     -0.73108389	      6.92530257	    -16.56350317	     17.49678173	    -20.65003316	     -0.79569260	     10.95200360	    -12.55599136	     -0.21914339	     11.28359979	      0.11562421	     -5.95102420	    -23.88526608	      1.15669737	     -2.48340062	     -9.83611020	     -9.95394655	     -2.67243032	     18.00283589	     89.95437384	      0.00000000	      0.00000000	      8.26424670	     10.26441470	      7.81301278	     32.04315610	     89.95437384	      0.00000000	      0.00000000
      1.21000000	     17.03715557	     -1.65945749	      0.45841213	     -0.00258023	      0.95341146	      1.42771041	      3.17500233	     -1.46527246	    -11.30428100	    -40.10657093	     -0.69999171	      6.93416330	    -16.11521964	     17.23119432	    -20.61295177	     -1.09414839	     11.05389967	    -12.67610329	     -0.22123974	     11.49535996	      0.10738987	     -5.86095933	    -23.38363188	      1.01098249	     -2.61344705	    -10.23309040	     -9.98834252	     -2.74903313	     18.00580485	     89.95437384	      0.00000000	      0.00000000	      8.81070528	     10.36688621	      7.79350503	     32.92672832	     89.95437384	      0.00000000	      0.00000000
      1.22000000	     17.31037211	     -2.08431947	      1.26523153	      0.00715730	      0.95316866	      1.42670989	      2.89661058	     -0.84170180	    -12.29041943	    -37.02713194	     -0.64624536	      6.36403193	    -15.66438047	     17.14039410	    -21.62518733	     -0.42946201	     10.11915061	    -12.51294558	     -0.21839210	     12.16164153	      0.49263400	     -5.78125250	    -23.71513099	      1.75784832	     -3.40677635	    -10.31168193	     -9.82731572	     -3.67578252	     17.68997779	     89.95437384	      0.00000000	      0.00000000	      9.05626863	     10.64790924	      7.70445373	     34.31739471	     89.95437384	      0.00000000	      0.00000000
      1.23000000	     17.11589528	     -2.15360949	      1.56667478	      0.01666776	      0.95191563	      1.42597033	      3.46641419	     -0.77224955	    -13.07615799	    -34.62056255	     -0.60424281	      5.74323950	    -14.83327325	     16.76526664	    -22.05321833	     -0.29823818	      9.73459720	    -12.50625978	     -0.21827541	     12.66555503	      0.61585798	     -5.70976081	    -23.54826925	      1.98440125	     -3.82971358	    -10.53972283	     -9.82567125	     -3.60954862	     17.48141688	     89.95437384	      0.00000000	      0.00000000	      9.39553449	     10.86575066	      7.53415498	     35.47243109	     89.95437384	      0.00000000	      0.00000000
      1.24000000	     16.96398659	     -2.25162507	      1.91505980	      0.02614376	      0.95070949	      1.42523400	      3.91390857	     -0.67108357	    -14.07151202	    -32.06698269	     -0.55967443	      4.89658115	    -13.59631733	     16.22293871	    -22.50206120	     -0.10881904	      9.26116320	    -12.55862540	     -0.21918936	     13.07024092	      0.71395346	     -5.66865569	    -23.44525324	      2.25835374	     -4.25631029	    -10.72790680	     -9.79704533	     -3.97599344	     17.34913875	     89.95437384	      0.00000000	      0.00000000	      9.73770106	     11.04851695	      7.51958626	     36.61286322	     89.95437384	      0.00000000	      0.00000000
      1.25000000	     16.80506707	     -2.35168967	      2.35521886	      0.03565708	      0.94938954	      1.42446195	      4.27917355	     -0.61130428	    -15.34990907	    -29.46321631	     -0.51423013	      3.82091963	    -11.91296887	     15.26134175	    -22.89587065	      0.12375910	      8.74896154	    -12.69628878	     -0.22159204	     13.41294082	      0.83364677	     -5.65932470	    -23.33971048	      2.54676317	     -4.70261383	    -10.91344462	     -9.68488345	     -4.91734098	     17.30154594	     89.95437384	      0.00000000	      0.00000000	     10.10078656	     11.19797963	      7.46281151	     37.71554155	     89.95437384	      0.00000000	      0.00000000
